<svg width="1200" height="900" viewBox="0 0 1200 900" fill="none" xmlns="http://www.w3.org/2000/svg">
  <rect width="1200" height="900" fill="#F4E9E1"/>
  <circle cx="930" cy="156" r="86" fill="#F26D5B"/>
  <rect y="650" width="1200" height="250" fill="#39424E"/>
  <rect x="96" y="384" width="126" height="266" fill="#71808F"/>
  <rect x="274" y="294" width="150" height="356" fill="#556273"/>
  <rect x="485" y="214" width="92" height="436" fill="#778795"/>
  <rect x="637" y="340" width="170" height="310" fill="#485665"/>
  <rect x="862" y="270" width="132" height="380" fill="#657483"/>
  <rect x="1032" y="430" width="98" height="220" fill="#526070"/>
  <path d="M529 214L531 90L535 214H529Z" fill="#485665"/>
  <path d="M523 140H541V176H523V140Z" fill="#485665"/>
  <g fill="#F5D887">
    <rect x="122" y="424" width="22" height="22"/>
    <rect x="174" y="470" width="22" height="22"/>
    <rect x="312" y="348" width="24" height="24"/>
    <rect x="368" y="406" width="24" height="24"/>
    <rect x="514" y="270" width="16" height="24"/>
    <rect x="546" y="350" width="16" height="24"/>
    <rect x="678" y="390" width="24" height="24"/>
    <rect x="746" y="462" width="24" height="24"/>
    <rect x="896" y="330" width="22" height="22"/>
    <rect x="944" y="412" width="22" height="22"/>
    <rect x="1062" y="474" width="20" height="20"/>
  </g>
  <path d="M0 702C173 682 270 724 408 698C554 671 677 710 818 682C973 652 1060 694 1200 668V900H0V702Z" fill="#222936"/>
  <path d="M0 780H1200" stroke="#F5D887" stroke-width="12" stroke-dasharray="48 40"/>
</svg>
