<svg width="1200" height="900" viewBox="0 0 1200 900" fill="none" xmlns="http://www.w3.org/2000/svg">
  <rect width="1200" height="900" fill="#DCEFF6"/>
  <circle cx="210" cy="168" r="72" fill="#F6B860"/>
  <path d="M0 498L146 318L263 454L398 240L575 512L716 338L858 506L1018 284L1200 492V900H0V498Z" fill="#8EA4B1"/>
  <path d="M0 536L128 372L254 516L398 282L565 540L714 386L862 548L1018 332L1200 530V900H0V536Z" fill="#EDF3F5"/>
  <path d="M0 598C135 566 249 601 375 582C519 560 660 518 827 546C981 571 1085 538 1200 555V900H0V598Z" fill="#426F8E"/>
  <path d="M0 690C133 660 245 692 380 676C541 657 663 620 828 645C988 670 1089 638 1200 655V900H0V690Z" fill="#2E5F7B"/>
  <path d="M476 687L618 610L760 687H476Z" fill="#F4F0E5"/>
  <rect x="512" y="686" width="210" height="95" rx="6" fill="#D8A45E"/>
  <rect x="582" y="716" width="70" height="65" fill="#6E4A36"/>
  <path d="M135 746C229 715 290 748 370 726C462 701 539 730 627 710C718 689 806 736 886 710C986 678 1079 706 1200 684V900H0V781C48 774 90 761 135 746Z" fill="#5C7A45"/>
</svg>
